<?xml version="1.0" standalone="no"?>
<!DOCTYPE svg PUBLIC "-//W3C//DTD SVG 20010904//EN"
 "http://www.w3.org/TR/2001/REC-SVG-20010904/DTD/svg10.dtd">
<svg version="1.0" xmlns="http://www.w3.org/2000/svg"
 width="792.000000pt" height="792.000000pt" viewBox="0 0 792.000000 792.000000"
 preserveAspectRatio="xMidYMid meet">
<metadata>
Created by potrace 1.14, written by Peter Selinger 2001-2017
</metadata>
<g transform="translate(0.000000,792.000000) scale(0.100000,-0.100000)"
fill="#000000" stroke="none">
<path d="M3955 7900 c-3 -5 -1 -10 4 -10 6 0 11 5 11 10 0 6 -2 10 -4 10 -3 0
-8 -4 -11 -10z"/>
<path d="M3945 7870 c-3 -5 -4 -10 0 -10 3 0 -1 -13 -9 -29 -9 -16 -12 -31 -9
-35 4 -3 1 -6 -6 -6 -7 0 -10 -4 -6 -9 3 -5 1 -12 -5 -16 -6 -4 -7 -11 -4 -17
4 -6 3 -13 -2 -17 -10 -7 -90 -242 -86 -253 1 -5 -3 -8 -9 -8 -6 0 -8 -7 -5
-16 3 -9 2 -12 -5 -9 -6 4 -9 1 -8 -6 2 -8 -2 -24 -9 -36 -7 -13 -10 -23 -6
-23 3 0 1 -7 -6 -15 -7 -8 -9 -15 -5 -15 4 0 2 -7 -5 -15 -7 -8 -9 -15 -5 -15
4 0 2 -7 -5 -15 -7 -8 -9 -15 -5 -15 4 0 2 -7 -5 -15 -6 -8 -9 -18 -6 -24 3
-5 2 -11 -4 -13 -9 -3 -20 -35 -22 -65 -1 -7 -6 -13 -11 -13 -5 0 -7 -7 -3
-15 3 -8 1 -15 -5 -15 -6 0 -9 -7 -5 -15 3 -9 -3 -19 -14 -25 -16 -9 -20 -8
-20 5 0 8 -7 15 -15 15 -8 0 -15 3 -15 8 0 4 -9 13 -21 20 -17 11 -20 11 -13
0 4 -7 -4 -1 -19 15 -14 15 -33 27 -42 27 -9 0 -18 7 -21 14 -3 8 -22 27 -42
42 -19 15 -31 21 -27 14 5 -8 -11 4 -35 28 -24 23 -53 45 -64 48 -11 4 -28 16
-38 28 -9 11 -17 17 -18 13 0 -5 -7 -1 -16 7 -22 23 -31 20 -31 -9 0 -14 3
-25 6 -25 4 0 8 -10 9 -22 1 -13 4 -39 6 -58 3 -19 8 -53 11 -75 11 -79 13
-90 15 -90 1 0 4 -13 6 -30 10 -70 13 -92 19 -120 3 -16 6 -42 5 -57 0 -15 4
-29 9 -32 5 -3 7 -19 6 -36 -1 -16 2 -30 7 -30 5 0 6 -4 3 -10 -3 -5 -2 -25 3
-44 11 -38 -4 -55 -28 -33 -10 9 -11 9 -5 -1 4 -7 -22 15 -57 50 -35 35 -62
66 -60 71 2 4 -4 7 -12 7 -9 0 -16 8 -16 17 0 9 -3 14 -6 11 -6 -7 -64 50 -64
63 0 5 -5 9 -11 9 -11 0 -109 100 -109 113 0 4 -5 7 -10 7 -11 0 -130 119
-130 131 0 3 -8 13 -17 20 -17 13 -17 13 -3 -6 14 -19 14 -19 -2 -6 -10 7 -18
19 -18 27 0 7 -5 16 -12 20 -7 5 -9 2 -4 -7 4 -8 -9 4 -29 26 l-36 40 7 -35
c3 -19 8 -60 10 -90 4 -59 11 -150 19 -245 3 -33 7 -82 10 -110 2 -27 6 -84
10 -125 3 -41 8 -97 10 -125 2 -27 7 -79 10 -115 3 -36 7 -92 10 -125 2 -33 7
-85 9 -115 6 -65 13 -158 21 -255 5 -64 13 -160 18 -211 2 -12 10 -29 20 -38
9 -10 17 -21 17 -25 0 -12 -26 -32 -33 -25 -3 3 -8 -4 -12 -15 -3 -12 -11 -21
-16 -21 -6 0 -7 -4 -4 -10 3 -5 -1 -10 -10 -10 -9 0 -13 -4 -10 -10 3 -5 1
-10 -4 -10 -6 0 -11 -6 -11 -14 0 -8 -7 -17 -16 -20 -8 -3 -13 -10 -10 -15 4
-5 3 -11 -2 -13 -4 -1 -22 -27 -40 -56 -18 -30 -27 -51 -20 -47 7 4 4 -1 -6
-9 -11 -9 -17 -16 -13 -16 4 0 1 -10 -8 -23 -8 -13 -12 -27 -8 -30 3 -4 1 -7
-6 -7 -7 0 -9 -4 -6 -10 3 -5 1 -10 -5 -10 -6 0 -9 -4 -5 -9 3 -5 1 -12 -5
-16 -6 -4 -7 -11 -4 -17 4 -6 2 -13 -2 -17 -11 -7 -51 -127 -58 -171 -1 -9 -5
-20 -8 -26 -4 -6 -9 -21 -12 -35 -9 -42 -14 -62 -29 -121 -8 -31 -12 -59 -9
-62 3 -3 0 -6 -6 -6 -6 0 -9 -9 -7 -20 2 -11 0 -20 -4 -20 -4 0 -8 -6 -9 -12
-3 -22 -10 -63 -12 -68 -1 -3 -2 -8 -1 -12 0 -5 -3 -8 -9 -8 -6 0 -9 -3 -9 -7
1 -5 0 -10 -1 -13 -3 -10 -11 -45 -12 -57 -1 -7 -5 -13 -8 -13 -7 0 -22 -56
-17 -64 1 -2 -6 -13 -16 -23 -9 -11 -14 -23 -10 -26 3 -4 1 -7 -6 -7 -7 0 -10
-4 -7 -9 3 -5 -1 -14 -9 -21 -8 -7 -12 -16 -9 -21 3 -5 0 -9 -5 -9 -6 0 -11
-7 -11 -15 0 -8 -4 -15 -10 -15 -5 0 -9 -4 -7 -9 1 -5 -7 -17 -18 -26 -11 -9
-13 -13 -5 -9 8 5 -1 -9 -20 -30 -19 -20 -34 -42 -33 -47 2 -5 -1 -9 -6 -9 -5
0 -27 -18 -49 -39 -22 -22 -43 -37 -46 -34 -3 4 -6 -1 -6 -11 0 -9 -5 -14 -11
-11 -5 4 -19 -3 -30 -16 -10 -12 -19 -18 -19 -13 0 5 -4 3 -9 -5 -5 -8 -17
-16 -26 -17 -9 -1 -23 -11 -32 -21 -8 -11 -12 -12 -8 -3 6 13 5 13 -7 0 -7 -8
-20 -16 -28 -18 -8 -2 -18 -9 -22 -15 -4 -7 -8 -8 -8 -3 0 5 -7 3 -15 -4 -8
-7 -15 -9 -15 -5 0 5 -9 0 -21 -11 -12 -10 -24 -18 -28 -16 -7 3 -74 -30 -82
-41 -3 -5 -8 -8 -10 -8 -14 2 -49 -13 -49 -21 0 -5 -4 -6 -10 -3 -5 3 -10 1
-10 -6 0 -7 -3 -9 -7 -6 -3 4 -12 -1 -20 -11 -9 -10 -12 -11 -7 -2 5 10 0 9
-14 -4 -12 -11 -22 -16 -22 -12 0 4 -7 1 -15 -6 -34 -31 -43 -36 -49 -31 -3 4
-6 1 -6 -6 0 -7 -4 -9 -10 -6 -5 3 -10 1 -10 -5 0 -6 -5 -8 -10 -5 -6 3 -13
-1 -16 -9 -3 -9 -10 -14 -14 -11 -4 3 -11 -2 -14 -11 -3 -8 -10 -12 -16 -9 -5
3 -10 1 -10 -4 0 -6 -5 -11 -11 -11 -7 0 -23 -12 -37 -27 -13 -16 -21 -22 -17
-14 4 7 -6 3 -24 -10 -17 -12 -31 -26 -31 -31 0 -4 -6 -7 -13 -5 -6 1 -11 -3
-10 -10 2 -6 -6 -15 -17 -18 -11 -4 -20 -11 -20 -17 0 -6 -3 -9 -6 -5 -8 8
-150 -133 -147 -145 2 -4 -3 -8 -11 -8 -7 0 -21 -11 -30 -25 -9 -14 -14 -25
-11 -25 3 0 -5 -11 -19 -24 -15 -13 -26 -27 -26 -31 0 -5 -12 -24 -27 -43 -15
-20 -20 -32 -12 -27 8 4 3 -3 -10 -18 -12 -14 -20 -30 -17 -35 3 -5 -1 -15 -9
-22 -8 -7 -12 -17 -9 -22 4 -6 2 -13 -5 -17 -6 -4 -12 -20 -14 -37 -2 -16 -6
-34 -8 -39 -13 -24 -15 -122 -5 -195 3 -25 7 -51 8 -57 1 -7 4 -13 7 -13 4 0
8 -11 9 -24 1 -13 7 -37 13 -52 7 -16 11 -35 10 -41 -1 -7 2 -13 6 -13 7 0 12
-29 17 -105 1 -16 -5 -38 -13 -47 -8 -10 -10 -18 -5 -18 5 0 -6 -9 -23 -20
-18 -11 -33 -25 -33 -30 0 -6 -4 -9 -9 -6 -5 3 -21 -4 -37 -16 -15 -13 -24
-16 -19 -8 5 8 -2 6 -14 -5 -13 -11 -25 -19 -27 -18 -9 5 -64 -10 -64 -17 0
-5 -8 -7 -17 -5 -10 1 -23 -1 -29 -6 -6 -5 -20 -10 -31 -12 -12 -2 -28 -9 -37
-16 -9 -7 -16 -10 -16 -6 0 5 -9 -2 -20 -15 -11 -13 -20 -20 -20 -16 0 4 -6 1
-14 -6 -8 -7 -12 -16 -10 -20 2 -4 -5 -9 -16 -13 -11 -3 -20 -12 -20 -19 0 -7
-9 -21 -20 -31 -11 -10 -18 -20 -16 -23 3 -2 -2 -11 -10 -19 -8 -8 -12 -19 -9
-24 4 -5 2 -9 -3 -9 -6 0 -13 -7 -16 -16 -4 -10 -2 -13 7 -8 6 4 3 -2 -7 -14
-11 -12 -16 -22 -11 -22 4 0 2 -7 -5 -15 -6 -8 -9 -19 -5 -25 3 -5 2 -10 -4
-10 -5 0 -8 -8 -6 -17 1 -10 -2 -24 -7 -30 -6 -7 -8 -20 -4 -28 3 -8 1 -15 -3
-15 -5 0 -8 -11 -6 -25 1 -14 -1 -25 -4 -25 -10 0 -11 -34 -14 -333 l-2 -268
23 28 c12 15 25 38 28 50 3 13 10 21 14 18 5 -3 11 4 15 15 3 11 11 20 17 20
6 0 8 3 5 6 -4 4 3 15 15 25 11 11 17 19 12 19 -5 0 -4 4 1 8 6 4 22 23 35 42
14 19 32 44 42 54 9 10 15 23 12 28 -3 4 1 8 8 8 7 0 21 14 31 31 10 18 20 29
23 26 4 -3 15 2 25 12 14 13 35 17 77 17 31 -1 63 -5 69 -9 7 -5 17 -5 23 -2
5 3 10 2 10 -3 0 -8 6 -10 50 -14 11 -1 20 -6 20 -11 0 -4 4 -6 9 -3 5 4 11 2
13 -3 1 -6 14 -11 28 -13 14 -2 31 -7 39 -12 11 -7 12 -6 6 5 -7 12 -6 12 7 1
8 -7 23 -10 32 -6 9 3 16 2 16 -3 0 -10 22 -12 180 -16 63 -2 123 0 133 5 9 5
17 5 18 1 1 -4 2 -66 4 -138 2 -71 6 -146 10 -165 3 -19 7 -47 8 -62 0 -16 4
-28 8 -28 4 0 6 -11 3 -24 -2 -14 0 -27 5 -31 6 -3 8 -14 6 -25 -2 -11 0 -20
5 -20 4 0 6 -9 3 -20 -3 -11 -1 -20 5 -20 6 0 9 -9 7 -20 -2 -11 0 -20 5 -20
5 0 7 -9 5 -20 -2 -11 0 -20 6 -20 5 0 8 -3 8 -7 -1 -5 0 -10 1 -13 1 -3 4
-18 6 -35 3 -16 9 -31 14 -33 5 -2 6 -10 3 -18 -3 -8 0 -14 6 -14 6 0 11 -8
11 -18 0 -22 22 -72 32 -72 4 0 5 -7 2 -15 -4 -8 -1 -15 6 -15 6 0 9 -4 5 -9
-3 -5 -1 -12 5 -16 6 -4 8 -11 5 -16 -4 -5 -2 -9 4 -9 6 0 8 -6 5 -14 -3 -8 0
-17 5 -21 6 -3 9 -11 6 -16 -4 -5 -2 -9 4 -9 5 0 8 -9 6 -20 -2 -11 0 -20 5
-20 5 0 7 -6 4 -14 -3 -8 -1 -17 5 -20 6 -4 8 -13 5 -20 -3 -8 -1 -17 5 -20 5
-4 8 -18 5 -31 -2 -14 -1 -25 3 -25 5 0 9 -10 9 -22 1 -13 5 -50 9 -83 4 -33
9 -69 10 -80 1 -11 3 -20 5 -20 1 0 4 -25 6 -55 2 -30 6 -82 9 -115 3 -33 6
-79 8 -103 1 -23 6 -42 10 -42 4 0 7 3 6 7 0 3 6 10 15 15 9 5 14 13 11 17 -2
5 2 14 10 21 8 7 15 19 15 26 0 8 3 14 8 14 4 0 13 9 20 21 11 17 11 20 0 14
-7 -3 -5 0 5 8 9 8 17 19 17 26 0 6 5 11 11 11 5 0 8 4 5 9 -4 5 -2 11 3 13 5
1 11 10 13 18 2 8 11 21 21 28 9 7 14 18 11 24 -4 6 0 16 9 23 9 6 17 18 19
26 2 7 10 20 18 27 13 12 13 13 0 7 -13 -6 -13 -5 0 7 17 14 45 68 42 81 -1 4
2 7 7 7 5 0 12 7 15 16 4 10 2 13 -7 8 -6 -4 -4 2 6 13 9 11 14 23 10 26 -3 4
-1 7 6 7 7 0 10 4 6 9 -3 5 -1 12 5 16 6 4 8 10 5 15 -3 5 -1 11 5 15 6 4 8
11 5 16 -4 5 -1 9 5 9 7 0 10 6 7 14 -3 8 -3 17 1 21 4 4 8 11 8 16 1 5 2 10
3 12 2 1 5 13 8 27 7 39 11 55 13 55 3 0 11 41 15 75 2 19 4 35 5 35 4 0 20
156 23 223 2 39 9 40 31 7 9 -14 13 -25 10 -25 -4 0 1 -10 12 -22 10 -12 13
-18 7 -14 -9 5 -11 2 -7 -8 3 -9 10 -16 16 -16 5 0 7 -4 3 -9 -3 -6 5 -20 17
-32 13 -12 16 -18 9 -14 -8 5 -4 -7 9 -25 14 -19 25 -39 25 -45 2 -21 17 -45
26 -39 5 3 9 -2 9 -12 0 -9 9 -25 21 -35 11 -9 20 -20 20 -23 -3 -20 0 -26 9
-21 6 3 10 -1 10 -9 0 -9 5 -16 12 -16 6 0 8 -3 5 -6 -4 -4 6 -18 21 -32 15
-13 21 -21 14 -17 -8 4 11 -19 42 -50 31 -32 56 -62 56 -67 0 -5 5 -6 10 -3 6
3 13 -1 16 -9 3 -9 10 -13 15 -10 5 3 9 -2 9 -10 0 -8 5 -18 12 -22 7 -5 8 -3
3 7 -5 8 3 3 17 -11 38 -37 56 -50 68 -50 5 0 10 -4 10 -10 0 -5 7 -10 15 -10
8 0 15 -5 15 -12 0 -6 3 -9 6 -5 4 3 13 -1 21 -9 8 -8 19 -12 24 -9 5 4 9 2 9
-3 0 -6 7 -13 16 -16 10 -4 13 -2 8 7 -4 6 2 3 14 -7 12 -11 22 -16 22 -11 0
4 7 2 15 -5 8 -7 15 -9 15 -4 0 5 4 3 9 -4 4 -7 18 -14 29 -15 12 -1 22 -5 22
-10 0 -5 6 -7 12 -5 7 3 19 -2 27 -9 7 -8 20 -12 27 -9 8 3 14 2 14 -2 0 -8
151 -68 163 -64 4 1 7 -3 7 -10 0 -6 3 -8 7 -5 3 4 13 1 21 -5 8 -7 21 -13 29
-14 17 -3 -5 26 -70 89 -21 20 -34 37 -30 37 4 1 -10 17 -32 37 -22 20 -31 30
-20 23 12 -8 9 -3 -7 13 -14 14 -47 53 -72 86 -25 32 -49 61 -53 63 -12 5 -53
66 -53 78 0 5 -4 10 -10 10 -5 0 -7 6 -4 14 3 8 0 17 -5 21 -6 3 -9 11 -6 16
4 5 1 9 -6 9 -7 0 -10 2 -7 6 3 3 2 22 -3 42 -14 55 -20 108 -23 193 -2 69 -1
76 16 71 10 -2 16 -8 13 -12 -3 -4 13 -23 35 -41 22 -19 40 -39 40 -46 0 -6 5
-15 12 -19 7 -5 8 -3 3 6 -5 9 -4 11 3 6 7 -4 12 -14 12 -23 0 -9 3 -13 7 -10
3 4 13 -2 21 -14 8 -11 25 -24 38 -29 13 -5 24 -17 24 -26 0 -10 3 -15 6 -12
3 4 14 -1 24 -10 58 -53 73 -65 65 -52 -4 8 5 3 21 -11 32 -29 75 -54 87 -51
4 1 7 -2 7 -7 0 -5 14 -16 30 -25 20 -9 28 -10 24 -3 -3 7 1 4 9 -5 8 -10 17
-15 20 -11 4 3 7 1 7 -6 0 -8 7 -11 15 -7 8 3 15 1 15 -5 0 -6 5 -7 10 -4 6 3
10 2 10 -2 0 -9 69 -39 83 -35 4 1 7 -2 7 -8 0 -6 3 -9 8 -9 4 1 9 1 12 -1 3
-1 15 -3 27 -6 44 -8 48 -9 53 -16 3 -3 21 -9 40 -11 19 -3 35 -6 35 -7 0 -2
9 -4 20 -5 11 -2 36 -6 55 -10 53 -11 125 -16 235 -16 87 -1 210 6 210 11 0 2
33 7 77 12 15 2 30 7 33 10 4 4 13 4 20 2 7 -3 16 -1 19 5 4 6 13 8 20 5 8 -3
17 -1 20 5 4 6 13 8 21 4 8 -3 15 0 15 6 0 6 7 8 15 5 8 -4 15 -1 15 5 0 6 3
10 8 9 16 -4 72 14 72 23 0 6 4 8 9 4 5 -3 12 -1 16 5 4 6 11 8 16 5 5 -4 9
-1 9 4 0 6 3 10 8 9 13 -4 102 42 102 53 0 6 5 7 11 4 6 -4 20 1 32 12 12 10
34 25 49 32 15 8 25 19 21 24 -3 6 -1 7 5 3 11 -6 152 100 152 116 0 5 5 6 10
3 6 -3 10 1 10 10 0 9 5 13 10 10 6 -3 10 1 10 9 0 8 5 18 12 22 7 5 9 2 4 -7
-5 -8 10 4 31 26 22 22 38 42 36 44 -1 2 9 12 22 23 14 11 23 24 20 29 -4 5
-2 9 4 9 18 0 22 -38 16 -127 -4 -49 -7 -95 -7 -103 0 -8 -5 -21 -11 -27 -5
-7 -7 -13 -3 -13 3 0 0 -16 -8 -35 -8 -19 -12 -35 -9 -35 3 0 0 -7 -7 -15 -7
-8 -9 -15 -6 -15 4 0 0 -7 -8 -16 -9 -8 -14 -20 -11 -25 4 -5 1 -9 -6 -9 -7 0
-10 -3 -7 -6 3 -3 -6 -18 -20 -34 -55 -58 -69 -75 -69 -80 0 -3 -14 -21 -31
-40 -18 -19 -32 -38 -32 -43 0 -4 -4 -5 -10 -2 -5 3 -10 2 -10 -4 0 -6 -10
-21 -22 -34 -45 -48 -66 -76 -60 -82 3 -3 -2 -5 -12 -5 -9 0 -15 -4 -12 -9 3
-5 -1 -11 -9 -15 -17 -6 -21 -36 -5 -36 6 0 10 4 10 8 0 4 10 9 22 9 13 1 24
7 26 12 2 5 10 7 18 4 8 -3 14 0 14 7 0 6 4 9 9 5 5 -3 12 -1 16 5 4 6 11 8
16 5 5 -4 9 -1 9 5 0 6 5 8 10 5 6 -3 10 -1 10 6 0 7 3 10 6 6 4 -3 19 0 34 8
15 8 30 11 34 8 3 -4 6 0 6 7 0 7 3 10 7 7 3 -4 15 1 26 10 11 10 17 12 13 5
-4 -7 8 -4 31 7 57 30 96 44 112 42 7 -1 10 2 6 8 -3 6 1 11 11 11 9 0 23 8
31 18 8 9 11 10 7 3 -4 -9 7 -4 27 9 19 13 36 28 37 32 2 5 8 6 13 2 5 -3 9 2
9 11 0 9 5 13 10 10 6 -3 10 -1 10 5 0 6 3 9 8 7 10 -7 32 19 24 28 -4 4 -2 5
5 3 6 -1 33 20 58 47 26 28 44 43 40 35 -4 -8 3 -4 14 10 11 14 21 31 21 38 0
7 5 10 10 7 6 -3 10 -2 10 3 0 4 9 18 20 30 12 12 19 22 16 22 -3 0 5 11 17
24 35 38 48 56 42 56 -3 0 3 10 14 21 11 12 32 47 47 78 16 31 35 65 44 75 13
17 13 18 0 11 -8 -4 -4 4 9 18 14 15 21 27 17 27 -4 0 -1 10 6 23 7 12 11 25
10 30 -1 4 3 7 9 7 5 0 8 4 4 9 -3 5 -1 12 4 15 16 10 21 -8 26 -91 3 -43 8
-94 11 -113 2 -19 6 -46 8 -60 2 -14 4 -25 6 -25 1 0 3 -13 5 -30 1 -16 3 -30
4 -30 4 0 12 -40 12 -57 0 -10 3 -18 7 -18 4 0 9 -9 10 -20 4 -42 6 -50 11
-50 4 0 8 -12 9 -27 1 -15 7 -32 12 -37 6 -6 10 -18 10 -28 0 -10 5 -18 11
-18 5 0 7 -5 4 -10 -3 -6 -1 -10 4 -10 6 0 10 -3 10 -7 -4 -22 2 -43 10 -39 5
3 12 -1 15 -10 4 -10 2 -13 -6 -8 -13 8 -3 -11 18 -36 7 -8 13 -19 14 -25 0
-5 8 -19 18 -31 9 -11 18 -25 19 -31 2 -11 44 -77 62 -99 6 -7 7 -15 4 -18 -4
-3 -1 -6 5 -6 7 0 11 -4 10 -9 -2 -5 6 -17 17 -26 11 -9 13 -14 5 -10 -13 6
-13 5 0 -7 8 -7 16 -20 18 -28 2 -8 7 -17 12 -20 4 -3 18 -26 30 -53 12 -26
23 -47 24 -47 2 0 3 19 4 42 1 24 4 66 7 93 2 28 7 75 10 105 2 30 7 82 11
115 3 33 6 75 7 92 1 18 5 33 8 33 4 0 5 14 4 30 -1 17 2 30 7 30 5 0 8 8 7
18 -1 9 2 31 6 47 5 17 8 38 7 48 0 9 4 17 10 17 6 0 8 9 5 20 -3 11 -1 20 5
20 6 0 8 7 4 15 -3 8 -1 15 5 15 6 0 9 7 5 15 -3 8 -1 15 5 15 6 0 9 7 5 15
-3 8 -1 15 4 15 6 0 9 3 8 7 0 5 6 24 15 43 8 19 13 38 11 42 -3 5 -1 8 4 8 7
0 35 73 32 82 -1 2 6 20 15 41 8 20 12 37 8 37 -5 0 -2 4 6 9 7 5 14 23 15 40
0 17 3 31 7 31 3 0 6 6 6 13 0 6 4 26 8 42 11 51 16 79 18 105 1 14 6 30 10
37 4 7 5 23 3 38 -3 14 -2 25 2 25 4 0 8 24 9 53 1 28 3 80 5 115 2 34 0 62
-3 62 -8 0 -5 32 4 47 5 8 16 9 30 4 25 -9 207 -9 222 0 6 3 25 5 42 3 18 -1
35 2 39 7 3 5 10 7 15 3 5 -3 26 0 47 7 20 7 40 13 44 14 3 0 9 3 13 7 4 4 13
4 21 1 8 -3 14 0 14 6 0 6 7 8 15 5 8 -4 15 -1 15 4 0 6 9 9 20 7 11 -2 20 0
20 4 0 9 5 10 88 14 43 3 66 0 73 -10 6 -7 16 -13 22 -13 12 0 67 -59 67 -72
0 -5 4 -6 10 -3 5 3 10 0 10 -8 0 -7 9 -23 20 -35 11 -12 20 -26 20 -32 0 -6
4 -9 9 -5 5 3 11 -5 13 -17 2 -13 9 -22 17 -20 7 1 11 -3 9 -10 -3 -7 4 -21
15 -30 11 -10 16 -18 11 -18 -5 0 3 -11 18 -24 15 -12 25 -26 21 -29 -3 -4 2
-9 11 -13 9 -3 16 -12 16 -19 0 -7 6 -18 14 -24 11 -10 14 6 16 96 4 168 3
261 -4 353 -9 125 -11 138 -18 145 -4 4 -4 13 -1 21 3 8 0 20 -6 28 -6 7 -8
16 -5 19 3 3 2 12 -2 19 -5 7 -10 22 -11 33 -2 11 -6 27 -10 35 -3 8 -5 21 -4
29 1 7 -2 10 -9 6 -7 -4 -10 -1 -9 6 4 20 -28 90 -49 106 -10 9 -11 12 -2 7
10 -5 8 1 -5 16 -39 47 -74 80 -84 80 -5 0 -14 6 -18 13 -11 17 -49 37 -71 37
-10 0 -23 5 -30 12 -7 7 -12 9 -12 5 0 -4 -22 2 -50 13 -27 11 -50 17 -50 13
0 -3 -9 2 -20 12 -11 10 -20 15 -20 11 0 -3 -10 0 -23 9 -13 8 -27 13 -30 10
-4 -3 -5 -2 -2 2 6 8 -37 39 -48 35 -5 -1 -6 2 -3 7 3 5 0 11 -8 14 -19 8 -14
151 7 185 5 6 6 12 2 12 -3 0 2 16 10 36 8 20 13 40 10 44 -3 5 0 10 5 12 17
5 35 207 21 233 -3 6 -7 24 -8 40 -4 50 -6 55 -16 55 -6 0 -8 3 -4 6 3 4 0 19
-9 35 -8 16 -14 30 -13 31 5 8 -14 48 -22 48 -6 0 -7 5 -4 10 3 6 1 10 -5 10
-6 0 -9 4 -6 9 3 5 -1 12 -10 15 -9 4 -14 9 -11 13 4 3 -1 12 -11 20 -11 10
-12 12 -2 8 8 -4 4 3 -10 15 -14 12 -18 19 -10 15 8 -4 4 3 -9 14 -13 12 -20
21 -17 21 4 0 1 6 -6 14 -7 8 -17 11 -22 8 -5 -3 -6 0 -2 6 3 6 -11 25 -31 42
-21 18 -31 29 -23 26 8 -4 7 -1 -4 8 -10 8 -35 31 -57 50 -21 20 -43 36 -49
36 -6 0 -8 5 -5 10 3 6 2 10 -4 10 -6 0 -20 10 -32 23 -12 12 -18 15 -14 7 5
-8 -6 0 -23 18 -17 19 -36 31 -41 28 -5 -3 -11 0 -14 8 -3 7 -20 24 -38 37
-19 13 -29 17 -25 8 4 -7 -2 -3 -13 10 -12 13 -21 20 -21 16 0 -3 -7 1 -16 9
-8 9 -19 14 -24 11 -4 -3 -10 2 -14 10 -3 8 -12 15 -21 15 -8 0 -15 5 -15 11
0 5 -4 7 -10 4 -5 -3 -10 -2 -10 2 0 5 -9 14 -21 21 -17 11 -20 11 -13 0 4 -7
-4 -3 -18 10 -13 12 -28 19 -31 15 -4 -3 -7 0 -7 7 0 7 -3 10 -7 7 -3 -4 -11
0 -17 7 -6 8 -20 16 -31 18 -11 2 -22 5 -25 8 -11 11 -110 60 -110 54 0 -3 -7
2 -16 10 -8 9 -20 14 -25 11 -5 -4 -9 -1 -9 6 0 7 -3 9 -6 6 -4 -3 -18 2 -32
13 -13 11 -28 17 -33 14 -5 -3 -9 0 -9 5 0 6 -5 11 -11 11 -6 0 -25 11 -43 25
-18 14 -35 23 -38 20 -3 -3 -15 8 -28 25 -13 16 -27 30 -31 30 -13 0 -48 37
-42 44 4 3 -2 6 -12 6 -10 0 -15 3 -12 7 4 4 -12 25 -35 47 -24 22 -37 36 -30
32 11 -7 11 -4 0 13 -7 12 -16 21 -20 21 -5 0 -8 7 -8 16 0 9 -5 12 -12 8 -6
-4 -8 -3 -5 3 4 6 0 19 -8 29 -8 10 -15 26 -15 35 0 9 -7 22 -15 29 -9 7 -13
15 -10 18 3 3 -2 14 -12 24 -9 10 -14 21 -11 24 4 3 0 17 -7 31 -8 15 -12 30
-9 35 3 4 0 8 -6 8 -6 0 -9 4 -5 9 3 5 1 12 -4 16 -6 3 -8 12 -5 19 3 8 0 17
-5 21 -6 3 -9 11 -6 16 4 5 2 9 -4 9 -5 0 -8 9 -6 20 2 11 -1 22 -6 25 -5 4
-7 11 -4 16 4 5 2 9 -4 9 -5 0 -8 9 -6 20 2 11 0 20 -5 20 -5 0 -7 6 -4 14 3
8 0 17 -5 21 -6 3 -9 11 -6 16 4 5 3 14 -1 21 -4 7 -9 26 -11 42 -2 17 -7 32
-12 35 -4 4 -7 14 -5 24 1 9 -1 17 -6 17 -4 0 -7 6 -7 13 1 24 -16 97 -23 97
-3 0 -7 7 -8 15 -1 8 -3 22 -4 30 -1 8 -4 15 -7 15 -4 0 -8 12 -9 27 -1 15 -5
29 -10 32 -4 3 -9 15 -10 26 -2 11 -10 27 -18 36 -8 9 -14 20 -13 25 3 16 -23
74 -33 74 -5 0 -6 5 -3 10 3 6 1 10 -5 10 -6 0 -9 4 -5 9 3 5 -2 17 -11 25 -8
9 -12 16 -7 16 4 0 0 5 -9 11 -10 5 -18 17 -18 24 0 8 -5 15 -11 15 -5 0 -7 5
-4 10 3 6 -1 13 -9 16 -9 3 -16 12 -16 19 0 7 -15 26 -34 43 -19 17 -32 33
-29 36 4 3 1 6 -5 6 -7 0 -12 9 -12 20 0 11 7 20 15 20 9 0 15 10 16 28 1 15
3 43 5 62 1 19 5 67 8 105 3 39 8 97 11 130 10 115 17 190 21 250 2 33 6 85 9
115 10 125 16 198 20 250 2 30 6 80 10 110 3 30 8 89 11 130 3 41 7 98 9 125
1 28 4 50 5 50 1 0 4 25 5 55 1 30 6 82 10 114 l7 60 -96 -97 c-53 -54 -96
-102 -96 -107 0 -5 -5 -12 -12 -16 -7 -5 -8 -3 -3 6 5 9 4 11 -3 6 -7 -4 -12
-13 -12 -21 0 -8 -5 -17 -12 -21 -7 -5 -8 -3 -3 6 5 9 4 11 -4 6 -7 -5 -17
-19 -22 -33 -5 -14 -18 -27 -29 -30 -11 -3 -20 -12 -20 -20 0 -8 -4 -12 -9 -9
-5 3 -15 -2 -22 -11 -12 -14 -12 -16 0 -8 10 5 12 4 7 -3 -4 -7 -13 -12 -21
-12 -8 0 -17 -5 -21 -12 -5 -7 -3 -8 6 -3 9 5 11 4 6 -3 -4 -7 -12 -12 -17
-12 -13 0 -39 -26 -39 -39 0 -5 -5 -13 -12 -17 -7 -5 -8 -2 -3 7 5 8 -4 3 -18
-10 -15 -14 -27 -31 -27 -38 0 -8 -4 -12 -9 -9 -5 3 -11 -4 -14 -15 -3 -11
-15 -23 -26 -26 -12 -3 -21 -12 -21 -20 0 -8 -4 -12 -9 -8 -6 3 -15 -3 -20
-14 -17 -30 -46 -20 -44 15 2 36 11 109 13 109 2 0 8 30 16 85 3 25 8 56 10
70 2 14 6 39 8 55 2 17 9 49 14 73 6 24 9 51 7 60 -1 9 0 22 4 27 8 14 19 83
24 153 1 12 6 22 10 22 5 0 5 5 1 12 -5 7 -11 5 -21 -7 -7 -11 -13 -15 -13
-10 0 4 -8 -2 -19 -13 -10 -12 -21 -19 -25 -15 -3 3 -6 1 -6 -5 0 -6 -9 -14
-20 -17 -11 -4 -18 -10 -16 -14 3 -4 -10 -14 -29 -21 -19 -7 -36 -19 -39 -27
-3 -7 -12 -13 -20 -13 -8 0 -24 -12 -36 -27 -12 -16 -18 -22 -14 -14 5 9 -2 8
-19 -5 -15 -10 -27 -22 -27 -26 0 -5 -6 -8 -14 -8 -7 0 -21 -10 -30 -22 -9
-13 -14 -16 -10 -8 3 8 -6 2 -21 -15 -14 -16 -23 -23 -19 -15 6 11 2 10 -13
-2 -20 -18 -44 -24 -42 -10 3 14 -14 72 -20 72 -4 0 -8 10 -8 22 -1 13 -7 24
-12 26 -5 2 -8 9 -5 17 3 7 0 16 -5 20 -6 3 -9 11 -6 16 4 5 1 9 -5 9 -6 0 -8
5 -5 10 4 6 1 17 -5 25 -7 8 -9 15 -5 15 4 0 2 6 -4 13 -6 8 -8 17 -4 20 3 4
1 7 -6 7 -8 0 -11 7 -7 15 3 8 0 15 -6 15 -6 0 -9 3 -5 6 3 4 -1 23 -9 43 -9
20 -17 43 -19 51 -2 8 -4 15 -5 15 -1 0 -3 11 -6 23 -2 13 -11 33 -18 44 -8
11 -12 27 -9 34 3 8 0 14 -7 14 -6 0 -9 4 -5 9 3 5 1 12 -5 16 -6 4 -8 11 -5
16 4 5 2 9 -2 9 -5 0 -10 12 -11 28 -1 15 -7 29 -12 30 -6 2 -7 8 -4 13 3 6 0
16 -6 24 -7 8 -9 15 -5 15 5 0 1 8 -8 18 -10 10 -14 21 -11 24 7 8 -14 48 -26
48 -5 0 -12 -4 -15 -10z m-1004 -7327 c13 -16 12 -17 -3 -4 -17 13 -22 21 -14
21 2 0 10 -8 17 -17z"/>
</g>
</svg>
